<?xml version="1.0" encoding="utf-8"?>
<!-- Generator: Adobe Illustrator 21.0.2, SVG Export Plug-In . SVG Version: 6.00 Build 0)  -->
<svg version="1.1" id="Layer_1" xmlns="http://www.w3.org/2000/svg" xmlns:xlink="http://www.w3.org/1999/xlink" x="0px" y="0px"
	 viewBox="0 0 82.1 64.2" style="enable-background:new 0 0 82.1 64.2;" xml:space="preserve">
<style type="text/css">
	.st0{fill:#F36D25;}
</style>
<path class="st0" d="M58.3,23.3h-9.1c-1.7,0-3,1.3-3,3v27c0,0.5,0.5,0.8,0.9,0.6l3.9-1.9c0.2-0.1,0.3-0.3,0.3-0.6V29.4
	c0-0.5,0.4-0.9,0.9-0.9h8.9c0.8,0,1.5-0.5,1.9-1.2l3.3-6.6h-6l-0.9,1.8C59.3,23,58.8,23.3,58.3,23.3z M81.6,3.1
	c-0.6-1-1.7-1.6-2.9-1.6H3.4c-1.2,0-2.3,0.6-2.9,1.6c-0.6,1-0.7,2.3-0.1,3.4l5.2,10.4c0.7,1.5,2.2,2.4,3.9,2.4h21
	c0.5,1.1,1.5,1.9,2.8,1.9c1.7,0,3.1-1.4,3.1-3.1S35,15,33.3,15c-1.3,0-2.4,0.8-2.8,1.9h-21c-0.8,0-1.5-0.4-1.9-1.2L2.4,5.4
	c-0.2-0.4-0.2-0.8,0-1.2s0.6-0.6,1-0.6h75.2c0.4,0,0.8,0.2,1,0.6c0.2,0.4,0.2,0.8,0.1,1.2l-5.2,10.4c-0.3,0.7-1.1,1.2-1.9,1.2h-0.3
	c0,0-0.1,0-0.1,0H50.5c0,0-0.1,0-0.1,0h-4.7c-3.2,0-5.8,2.6-5.8,5.8v37.5l-12.1-6.1c-0.7-0.3-1.2-1.1-1.2-1.9V33.6
	c0-0.6-0.5-1.1-1.1-1.1h-8.4c-0.8,0-1.5-0.4-1.9-1.2l-1.7-3.5c0.5-0.5,0.8-1.2,0.8-2c0-1.7-1.4-3.1-3.1-3.1s-3.1,1.4-3.1,3.1
	c0,1.7,1.4,3.1,3.1,3.1c0.1,0,0.2,0,0.3,0l1.7,3.5c0.7,1.5,2.2,2.4,3.9,2.4h7.2v17.6c0,1.7,0.9,3.1,2.4,3.9l13.7,6.9
	c0,0,0.1,0,0.1,0.1c0,0,0.1,0,0.1,0c0.1,0,0.2,0,0.3,0l0,0l0,0c0.1,0,0.2,0,0.3,0c0,0,0.1,0,0.1,0c0.1,0,0.1,0,0.1-0.1l13.7-6.9
	c1.5-0.7,2.4-2.2,2.4-3.9V34.7h7.2c1.7,0,3.1-0.9,3.9-2.4l1.7-3.5c0.1,0,0.2,0,0.3,0c1.7,0,3.1-1.4,3.1-3.1c0-1.7-1.4-3.1-3.1-3.1
	s-3.1,1.4-3.1,3.1c0,0.8,0.3,1.5,0.8,2l-1.7,3.5c-0.3,0.7-1.1,1.2-1.9,1.2h-8.4c-0.6,0-1.1,0.5-1.1,1.1v18.7c0,0.8-0.4,1.5-1.2,1.9
	l-12.1,6.1V22.7c0-1.9,1.6-3.5,3.5-3.5h27c1.7,0,3.1-0.9,3.9-2.4l5.2-10.4C82.3,5.4,82.2,4.1,81.6,3.1z M33.3,17.3
	c0.5,0,0.8,0.4,0.8,0.8s-0.4,0.8-0.8,0.8s-0.8-0.4-0.8-0.8S32.8,17.3,33.3,17.3z M11.3,26.7c-0.5,0-0.8-0.4-0.8-0.8s0.4-0.8,0.8-0.8
	s0.8,0.4,0.8,0.8S11.8,26.7,11.3,26.7z M70.8,25c0.4,0,0.8,0.4,0.8,0.8s-0.4,0.8-0.8,0.8s-0.8-0.4-0.8-0.8S70.3,25,70.8,25z
	 M19.1,12.9H63c0.6,0,1,0.7,0.7,1.2L63,15.5h6l3.5-7c0.2-0.4-0.1-0.8-0.5-0.8H10.1c-0.4,0-0.7,0.4-0.5,0.8l3.5,7h6l-0.7-1.4
	C18.1,13.6,18.5,12.9,19.1,12.9z M31.1,51.9l3.9,1.9c0.4,0.2,0.9-0.1,0.9-0.6v-27c0-1.7-1.3-3-3-3h-9.1c-0.5,0-1-0.3-1.2-0.8
	l-0.9-1.8h-6l3.3,6.6c0.4,0.7,1.1,1.2,1.9,1.2h8.9c0.5,0,0.9,0.4,0.9,0.9v21.9C30.7,51.6,30.8,51.8,31.1,51.9z"/>
</svg>
